<?xml version="1.0" standalone="no"?>
<!DOCTYPE svg PUBLIC "-//W3C//DTD SVG 20010904//EN"
 "http://www.w3.org/TR/2001/REC-SVG-20010904/DTD/svg10.dtd">
<svg version="1.0" xmlns="http://www.w3.org/2000/svg"
 width="300.000000pt" height="300.000000pt" viewBox="0 0 300.000000 300.000000"
 preserveAspectRatio="xMidYMid meet">
<metadata>
Created by potrace 1.14, written by Peter Selinger 2001-2017
</metadata>
<g transform="translate(0.000000,300.000000) scale(0.100000,-0.100000)"
fill="#000000" stroke="none">
<path d="M2396 2283 c-67 -20 -93 -45 -78 -77 6 -13 14 -55 17 -93 3 -37 8
-79 11 -93 2 -14 7 -43 9 -65 9 -65 14 -73 70 -101 30 -16 53 -30 50 -32 -2
-2 2 -20 9 -40 18 -53 13 -84 -17 -114 -15 -15 -27 -37 -27 -48 l0 -22 -34 21
c-40 25 -46 26 -46 5 0 -8 5 -12 11 -9 6 4 13 -2 16 -13 3 -14 11 -18 24 -15
23 6 26 -21 5 -43 -13 -12 -17 -10 -32 15 -21 35 -38 31 -61 -16 -11 -25 -21
-33 -34 -30 -10 3 -20 0 -22 -6 -1 -5 -18 -10 -36 -9 -25 1 -36 -5 -50 -29
-10 -16 -21 -26 -25 -22 -3 4 -16 8 -28 10 -24 4 -117 53 -190 100 -114 73
-268 145 -338 159 -14 2 -53 6 -86 8 -34 2 -66 5 -70 8 -26 13 -486 -2 -545
-18 -11 -3 -44 22 -92 68 -135 130 -169 160 -174 154 -3 -2 12 -20 33 -38 21
-18 74 -68 118 -112 73 -72 78 -79 60 -89 -10 -6 -26 -12 -36 -14 -17 -3 -125
-51 -188 -83 -233 -121 -252 -128 -284 -101 -6 5 -23 12 -36 14 -14 3 -36 8
-50 11 -45 11 -110 14 -110 4 0 -5 7 -16 15 -24 20 -20 20 -48 0 -40 -12 4
-15 -3 -16 -32 0 -20 -3 -46 -6 -57 -3 -11 -6 -58 -7 -105 l-1 -84 -33 -10
c-22 -6 -34 -17 -38 -33 -7 -27 2 -108 13 -126 4 -7 8 -16 9 -22 1 -5 11 -31
23 -58 l20 -47 56 4 c36 3 68 0 92 -10 24 -11 68 -15 134 -15 l99 1 15 -31
c15 -29 15 -30 -2 -29 -10 1 -20 1 -23 0 -3 -1 -59 -3 -125 -5 -157 -5 -249
-18 -272 -37 -11 -9 -11 -14 2 -28 8 -9 21 -17 28 -18 6 -1 37 -4 67 -8 68 -9
580 -9 865 0 116 4 361 9 545 11 184 3 506 7 715 10 407 5 599 12 627 21 22 7
23 27 3 44 -8 7 -15 10 -15 7 0 -3 -17 -1 -37 4 -21 4 -96 9 -167 10 -72 0
-136 3 -143 6 -23 9 14 42 40 37 20 -4 175 -5 221 -2 10 1 33 15 51 32 30 29
33 37 35 96 3 104 1 117 -25 175 -25 53 -79 115 -101 115 -6 0 -26 8 -45 17
-18 9 -58 23 -89 30 -82 21 -160 40 -165 42 -3 0 -12 1 -20 1 -13 0 -13 4 -3
23 7 12 18 25 23 29 12 8 14 68 3 68 -5 0 -8 -4 -8 -10 0 -5 -7 -7 -15 -4 -8
4 -15 12 -15 19 0 7 -8 16 -17 20 -16 6 -16 8 4 16 20 7 21 12 13 34 -7 18 -7
24 0 20 15 -9 70 4 70 17 0 6 13 25 29 44 l30 33 31 -35 c17 -20 33 -49 37
-65 6 -31 20 -38 29 -14 9 22 -28 104 -49 111 -19 6 -57 60 -57 82 0 25 19 11
30 -23 11 -33 19 -39 46 -36 12 1 74 -70 74 -85 0 -4 -7 -16 -17 -26 -19 -21
-10 -36 12 -18 12 10 22 4 59 -36 25 -27 45 -55 46 -61 0 -14 32 -18 43 -6 4
3 2 12 -4 20 -13 15 -5 17 20 4 9 -5 23 -6 30 -1 17 10 -18 58 -102 144 -50
49 -58 63 -55 87 3 16 1 29 -4 29 -4 0 -8 5 -8 10 0 6 7 10 15 10 18 0 20 21
4 37 -8 8 -21 7 -46 -4 -33 -13 -36 -13 -49 5 -12 17 -18 18 -38 9 -13 -7 -22
-16 -18 -22 3 -5 -2 -3 -12 5 -17 13 -17 14 -1 20 15 5 15 7 2 18 -19 16 -47
-9 -47 -43 0 -13 -4 -27 -10 -30 -5 -3 -10 1 -10 9 0 9 -4 16 -9 16 -17 0 14
47 58 90 l42 41 -7 82 c-3 45 -7 84 -9 87 -2 3 -6 43 -10 90 -4 51 -12 91 -21
100 -19 20 -136 22 -198 3z m32 -798 c1 -1 -4 -7 -11 -14 -11 -8 -18 -6 -33
10 -18 20 -18 20 11 13 17 -4 31 -8 33 -9z m-53 -24 c6 -11 -32 -41 -52 -41
-7 0 -13 5 -13 11 0 6 7 9 15 5 9 -3 15 0 15 9 0 9 -6 12 -17 9 -15 -5 -16 -4
-3 5 19 13 47 14 55 2z m87 -64 c-3 -12 -12 -16 -28 -14 -25 3 -45 17 -26 17
7 0 12 8 12 18 0 10 5 23 12 30 9 9 14 6 23 -11 6 -12 9 -30 7 -40z m-301
-568 c11 -5 19 -13 19 -17 0 -10 -467 -8 -477 2 -4 4 -3 7 2 6 30 -6 105 1
100 10 -8 13 332 12 356 -1z m-577 -17 c3 -5 -14 -9 -37 -11 -94 -6 -137 -6
-137 1 0 4 37 9 83 11 45 1 83 4 84 5 1 1 4 -2 7 -6z m40 0 c3 -5 -1 -9 -9 -9
-8 0 -12 4 -9 9 3 4 7 8 9 8 2 0 6 -4 9 -8z m40 0 c3 -5 -1 -9 -9 -9 -8 0 -12
4 -9 9 3 4 7 8 9 8 2 0 6 -4 9 -8z m-734 -12 c0 -5 -7 -7 -15 -4 -8 4 -15 8
-15 10 0 2 7 4 15 4 8 0 15 -4 15 -10z m104 -1 c-4 -7 -44 0 -44 7 0 2 11 3
24 2 14 -1 23 -5 20 -9z m80 0 c-4 -7 -44 0 -44 7 0 2 11 3 24 2 14 -1 23 -5
20 -9z m80 0 c-4 -7 -44 0 -44 7 0 2 11 3 24 2 14 -1 23 -5 20 -9z m80 0 c-4
-7 -44 0 -44 7 0 2 11 3 24 2 14 -1 23 -5 20 -9z m95 7 c-8 -8 -69 -14 -73 -8
-2 4 14 8 37 9 22 2 38 1 36 -1z"/>
</g>
</svg>
